<svg width="173" height="8" viewBox="0 0 173 8" fill="none" xmlns="http://www.w3.org/2000/svg">
<path d="M156.137 6.82697C150.14 6.38366 154.866 6.70944 143.522 5.9375C142.058 5.83822 133.611 5.33957 133.49 5.33386C118.714 4.59444 112.552 4.27836 90.8281 3.89895C76.6396 3.82535 80.6079 3.83619 73.8584 3.86643C64.9217 3.90694 67.312 3.86872 60.0729 4.12717C53.0511 4.37821 55.0451 4.30004 53.0511 4.40217C39.5741 5.09252 44.8764 4.78443 31.4411 5.66649C31.429 5.66706 21.8138 6.40135 15.5518 7.02552L9.02632 7.67536C8.82319 7.69533 8.65959 7.58293 8.55857 7.51048C7.94149 7.06488 7.72736 6.17769 7.98979 5.94092C5.34687 6.03962 3.94473 6.11436 2.0847 6.06986C1.76188 6.06187 1.43907 6.02878 1.11955 6.00482C0.281765 5.85077 -0.335319 4.33256 0.20051 4.08951C0.392018 3.99535 0.635443 3.9347 0.896647 3.91607C1.60215 3.64284 2.40432 3.44451 3.25737 3.33241C3.78221 3.26851 4.05452 3.27022 6.20004 3.20004C9.07134 3.10647 8.40484 3.05227 13.9256 2.60611C27.5596 1.50211 42.5793 0.537328 56.3616 0.202992C78.7357 -0.338452 102.328 0.259475 124.632 1.33095C152.265 2.17763 169.031 3.71068 169.698 3.73806C169.884 3.74688 170.063 3.77899 170.22 3.83163C170.43 3.90181 170.556 4.03246 170.674 4.14086C171.285 4.69999 171.385 5.44113 171.194 5.69045C171.463 5.76405 171.73 5.84164 171.999 5.91353C172.539 6.05674 173.299 7.27541 172.878 7.74497C172.785 7.82028 172.701 7.8819 172.581 7.9458C172.498 7.98916 172.36 8 172.237 8C171.422 8 158.114 6.97645 156.137 6.82697Z" fill="#A365B0"/>
</svg>
